HIERARCHY
ROOT Hips
{
	OFFSET 0.000000 0.000000 0.000000
	CHANNELS 6 Xposition Yposition Zposition Yrotation Xrotation Zrotation
	JOINT Chest
	{
		OFFSET 0.000000 -0.009282 11.569106
		CHANNELS 6 Xposition Yposition Zposition Yrotation Xrotation Zrotation
		JOINT Chest2
		{
			OFFSET -0.000000 0.016863 9.269641
			CHANNELS 6 Xposition Yposition Zposition Yrotation Xrotation Zrotation
			JOINT Chest3
			{
				OFFSET -0.000000 0.000000 8.374491
				CHANNELS 6 Xposition Yposition Zposition Yrotation Xrotation Zrotation
				JOINT Chest4
				{
					OFFSET -0.000000 0.000000 8.374493
					CHANNELS 6 Xposition Yposition Zposition Yrotation Xrotation Zrotation
					JOINT Neck
					{
						OFFSET -0.000000 0.000001 12.152554
						CHANNELS 6 Xposition Yposition Zposition Yrotation Xrotation Zrotation
						JOINT Head
						{
							OFFSET -0.000000 0.040100 7.802319
							CHANNELS 6 Xposition Yposition Zposition Yrotation Xrotation Zrotation
							End Site
							{
								OFFSET -0.000000 0.020946 14.853096
							}
						}
					}
					JOINT RightCollar
					{
						OFFSET 2.894404 0.000001 6.791374
						CHANNELS 6 Xposition Yposition Zposition Yrotation Xrotation Zrotation
						JOINT RightShoulder
						{
							OFFSET 13.574684 0.000001 0.000000
							CHANNELS 6 Xposition Yposition Zposition Yrotation Xrotation Zrotation
							JOINT RightElbow
							{
								OFFSET 23.923903 0.000002 0.000000
								CHANNELS 6 Xposition Yposition Zposition Yrotation Xrotation Zrotation
								JOINT RightWrist
								{
									OFFSET 19.846718 0.012767 0.000000
									CHANNELS 6 Xposition Yposition Zposition Yrotation Xrotation Zrotation
									End Site
									{
										OFFSET 14.973145 0.000001 0.000000
									}
								}
							}
						}
					}
					JOINT LeftCollar
					{
						OFFSET -2.894404 0.000000 6.791374
						CHANNELS 6 Xposition Yposition Zposition Yrotation Xrotation Zrotation
						JOINT LeftShoulder
						{
							OFFSET -13.574684 -0.000001 0.000000
							CHANNELS 6 Xposition Yposition Zposition Yrotation Xrotation Zrotation
							JOINT LeftElbow
							{
								OFFSET -23.923903 -0.000002 0.000000
								CHANNELS 6 Xposition Yposition Zposition Yrotation Xrotation Zrotation
								JOINT LeftWrist
								{
									OFFSET -19.846718 0.012763 0.000000
									CHANNELS 6 Xposition Yposition Zposition Yrotation Xrotation Zrotation
									End Site
									{
										OFFSET -14.973145 -0.000001 0.000000
									}
								}
							}
						}
					}
				}
			}
		}
	}
	JOINT RightHip
	{
		OFFSET 9.469263 0.004643 0.045487
		CHANNELS 6 Xposition Yposition Zposition Yrotation Xrotation Zrotation
		JOINT RightKnee
		{
			OFFSET 0.000000 0.002666 -40.478676
			CHANNELS 6 Xposition Yposition Zposition Yrotation Xrotation Zrotation
			JOINT RightAnkle
			{
				OFFSET 0.000000 0.049110 -35.224068
				CHANNELS 6 Xposition Yposition Zposition Yrotation Xrotation Zrotation
				JOINT RightToe
				{
					OFFSET -0.000001 12.539530 -6.151390
					CHANNELS 6 Xposition Yposition Zposition Yrotation Xrotation Zrotation
					End Site
					{
						OFFSET -0.000001 5.044996 -1.291870
					}
				}
			}
		}
	}
	JOINT LeftHip
	{
		OFFSET -9.469263 0.004641 0.045487
		CHANNELS 6 Xposition Yposition Zposition Yrotation Xrotation Zrotation
		JOINT LeftKnee
		{
			OFFSET 0.000000 0.002666 -40.478676
			CHANNELS 6 Xposition Yposition Zposition Yrotation Xrotation Zrotation
			JOINT LeftAnkle
			{
				OFFSET 0.000000 0.049110 -35.224068
				CHANNELS 6 Xposition Yposition Zposition Yrotation Xrotation Zrotation
				JOINT LeftToe
				{
					OFFSET -0.000001 12.539530 -6.151390
					CHANNELS 6 Xposition Yposition Zposition Yrotation Xrotation Zrotation
					End Site
					{
						OFFSET -0.000001 5.044996 -1.291870
					}
				}
			}
		}
	}
}
MOTION
Frames: 4
Frame Time: 0.016667
10.687040 5.258801 82.961647 -7.275678 -3.041276 -111.201060 -0.000001 -0.009280 11.569101 -0.815637 -3.011679 0.529194 0.000001 0.016863 9.269631 -0.352899 -1.337102 0.218827 0.000000 0.000000 8.374483 -0.352899 -1.337102 0.218825 -0.000000 0.000000 8.374505 -0.264183 -1.002953 0.163340 0.000001 0.000001 12.152548 0.952274 -17.352055 -2.121287 0.000002 0.040098 7.802315 1.029882 3.959348 -3.591725 2.894404 0.000000 6.791373 5.299461 -0.860047 1.308372 13.574685 0.000001 -0.000001 57.802989 -10.680894 48.559619 23.923908 -0.000003 -0.000012 11.407182 -23.300140 44.922649 19.846706 0.012772 0.000011 -50.785202 40.608248 35.599441 -2.894403 -0.000000 6.791371 -9.331664 -2.818236 -8.466354 -13.574679 -0.000003 0.000009 -53.204278 1.400313 -45.505965 -23.923901 0.000001 -0.000001 -53.045254 -28.415983 -56.799525 -19.846718 0.012759 0.000001 -24.395002 30.144176 -14.212524 9.469261 0.004644 0.045477 0.448361 -11.091803 -2.985021 -0.000004 0.002665 -40.478764 0.341014 -1.772447 0.073203 0.000016 0.049098 -35.223827 0.377987 5.380817 -0.305602 -0.000001 12.539527 -6.151393 0.014323 0.008323 0.007294 -9.469265 0.004643 0.045485 0.235984 -10.638192 0.340502 -0.000053 0.002665 -40.478729 0.672399 -1.011733 1.132715 0.000054 0.049105 -35.223873 -1.118300 4.060679 -1.331887 -0.000002 12.539534 -6.151391 0.014523 -0.033751 -0.005141 
10.697500 5.271767 82.962730 -7.275285 -3.050696 -111.194674 -0.000001 -0.009282 11.569106 -0.812466 -2.991451 0.480474 -0.000000 0.016863 9.269629 -0.351184 -1.327894 0.197211 -0.000001 -0.000000 8.374489 -0.351184 -1.327895 0.197211 0.000001 -0.000001 8.374502 -0.262948 -0.996035 0.147140 0.000000 0.000001 12.152565 0.955217 -17.364747 -2.105283 -0.000000 0.040101 7.802296 1.041087 3.936016 -3.561054 2.894404 -0.000000 6.791373 5.270633 -0.812822 1.268906 13.574685 -0.000000 -0.000007 57.371110 -10.842299 48.034719 23.923904 0.000016 -0.000011 12.163612 -24.164472 44.627858 19.846714 0.012773 0.000008 -51.525516 38.365893 33.644521 -2.894403 -0.000001 6.791379 -9.340227 -2.827353 -8.439565 -13.574682 -0.000002 -0.000007 -53.335079 1.259040 -45.772362 -23.923897 0.000010 -0.000004 -53.670790 -28.266530 -56.736110 -19.846712 0.012762 0.000005 -21.177498 33.634788 -17.262847 9.469262 0.004643 0.045483 0.447629 -11.097935 -2.987791 -0.000003 0.002665 -40.478760 0.338613 -1.774067 0.072371 0.000016 0.049095 -35.223824 0.387960 5.381792 -0.305318 -0.000002 12.539527 -6.151393 0.014835 0.009574 0.007506 -9.469263 0.004642 0.045483 0.234405 -10.647461 0.348279 -0.000052 0.002665 -40.478737 0.671413 -1.005536 1.124956 0.000055 0.049102 -35.223896 -1.111464 4.060350 -1.343091 -0.000002 12.539533 -6.151390 0.015510 -0.033968 -0.005350 
10.709793 5.283909 82.963829 -7.276878 -3.061145 -111.189073 -0.000001 -0.009282 11.569105 -0.810431 -2.970431 0.430026 0.000000 0.016862 9.269630 -0.350508 -1.318637 0.174557 -0.000000 0.000000 8.374490 -0.350508 -1.318639 0.174561 0.000001 -0.000000 8.374503 -0.262493 -0.989079 0.130157 -0.000001 0.000003 12.152552 0.962625 -17.383069 -2.088112 -0.000000 0.040105 7.802294 1.061045 3.902341 -3.526649 2.894403 0.000001 6.791382 5.223737 -0.789373 1.212981 13.574682 0.000000 0.000009 56.913757 -10.981899 47.506691 23.923908 0.000002 0.000008 13.082695 -25.124337 44.454798 19.846712 0.012773 0.000005 -51.950316 35.690409 31.591438 -2.894406 -0.000000 6.791381 -9.340201 -2.826689 -8.414724 -13.574687 0.000001 0.000001 -53.375254 1.126720 -46.102315 -23.923904 -0.000001 0.000004 -54.047369 -28.172784 -56.707775 -19.846718 0.012765 0.000005 -17.189624 36.980721 -20.057339 9.469263 0.004644 0.045485 0.451220 -11.107534 -2.961450 -0.000004 0.002666 -40.478756 0.329513 -1.774693 0.053188 0.000017 0.049098 -35.223824 0.398273 5.382224 -0.314162 -0.000001 12.539528 -6.151382 0.017099 0.011879 0.008770 -9.469264 0.004643 0.045478 0.231343 -10.661434 0.359748 -0.000052 0.002667 -40.478722 0.674893 -0.998121 1.129092 0.000060 0.049105 -35.223885 -1.109420 4.061267 -1.368059 0.000000 12.539534 -6.151388 0.016932 -0.034400 -0.005719 
10.720669 5.295706 82.964615 -7.278851 -3.069487 -111.184920 -0.000001 -0.009283 11.569105 -0.809639 -2.951674 0.380484 0.000001 0.016864 9.269631 -0.350847 -1.310617 0.152092 -0.000000 -0.000001 8.374485 -0.350847 -1.310617 0.152090 -0.000000 -0.000000 8.374496 -0.262797 -0.983050 0.113310 -0.000001 0.000001 12.152564 0.972629 -17.403605 -2.071978 0.000001 0.040103 7.802328 1.085477 3.864582 -3.493271 2.894403 0.000000 6.791378 5.165389 -0.797544 1.127890 13.574681 -0.000000 0.000000 56.427775 -11.080442 47.015460 23.923908 0.000017 -0.000005 14.099152 -26.170638 44.426399 19.846706 0.012768 0.000009 -52.093901 32.664321 29.468916 -2.894404 -0.000001 6.791378 -9.334070 -2.814637 -8.402932 -13.574679 -0.000004 0.000009 -53.297718 0.995036 -46.492087 -23.923889 0.000005 0.000004 -53.984787 -28.054469 -56.766375 -19.846718 0.012760 0.000001 -12.482559 39.753859 -22.384758 9.469262 0.004643 0.045483 0.451008 -11.111015 -2.928994 -0.000002 0.002664 -40.478748 0.324884 -1.785215 0.028943 0.000018 0.049097 -35.223820 0.402570 5.387210 -0.325556 -0.000001 12.539527 -6.151390 0.021227 0.013490 0.009565 -9.469263 0.004642 0.045484 0.226892 -10.670366 0.359990 -0.000054 0.002665 -40.478733 0.677580 -0.998633 1.136195 0.000058 0.049104 -35.223873 -1.107110 4.064876 -1.368758 0.000001 12.539533 -6.151390 0.018085 -0.034240 -0.005738 
